<?xml version="1.0" encoding="UTF-8" standalone="no"?>
<!-- Created with Inkscape (http://www.inkscape.org/) -->

<svg
   xmlns:dc="http://purl.org/dc/elements/1.1/"
   xmlns:cc="http://creativecommons.org/ns#"
   xmlns:rdf="http://www.w3.org/1999/02/22-rdf-syntax-ns#"
   xmlns:svg="http://www.w3.org/2000/svg"
   xmlns="http://www.w3.org/2000/svg"
   xmlns:sodipodi="http://sodipodi.sourceforge.net/DTD/sodipodi-0.dtd"
   xmlns:inkscape="http://www.inkscape.org/namespaces/inkscape"
   width="34.133335"
   height="34.133335"
   id="svg2985"
   version="1.1"
   inkscape:version="0.92.1 r15371"
   sodipodi:docname="semiautomaticclassificationplugin_LCS_threshold_set_tool.svg"
   inkscape:export-filename="/home/luca/Scrivania/semiautomaticclassificationplugin_LCS_threshold_set_tool.png"
   inkscape:export-xdpi="67"
   inkscape:export-ydpi="67">
  <defs
     id="defs2987" />
  <sodipodi:namedview
     id="base"
     pagecolor="#ffffff"
     bordercolor="#666666"
     borderopacity="1.0"
     inkscape:pageopacity="0.0"
     inkscape:pageshadow="2"
     inkscape:zoom="11.197802"
     inkscape:cx="-24.079194"
     inkscape:cy="6.3007565"
     inkscape:current-layer="layer1"
     showgrid="true"
     inkscape:grid-bbox="true"
     inkscape:document-units="px"
     showguides="true"
     inkscape:snap-global="true"
     inkscape:window-width="1366"
     inkscape:window-height="708"
     inkscape:window-x="0"
     inkscape:window-y="0"
     inkscape:window-maximized="1"
     inkscape:guide-bbox="true">
    <inkscape:grid
       type="xygrid"
       id="grid2997"
       originx="0"
       originy="0"
       spacingx="1.0666667"
       spacingy="1.0666667" />
  </sodipodi:namedview>
  <metadata
     id="metadata2990">
    <rdf:RDF>
      <cc:Work
         rdf:about="">
        <dc:format>image/svg+xml</dc:format>
        <dc:type
           rdf:resource="http://purl.org/dc/dcmitype/StillImage" />
        <dc:title />
      </cc:Work>
    </rdf:RDF>
  </metadata>
  <g
     id="layer1"
     inkscape:label="Layer 1"
     inkscape:groupmode="layer">
    <rect
       style="color:#000000;display:inline;overflow:visible;visibility:visible;fill:#ffffff;fill-opacity:1;fill-rule:nonzero;stroke:#000000;stroke-width:1.06666672;stroke-linecap:butt;stroke-linejoin:miter;stroke-miterlimit:4;stroke-dasharray:none;stroke-dashoffset:0;stroke-opacity:1;marker:none;enable-background:accumulate"
       id="rect3815"
       width="37.333332"
       height="37.333332"
       x="0"
       y="-3.2"
       ry="3.3153698" />
    <path
       style="fill:#000000;fill-opacity:1;stroke:#00001c;stroke-width:1.06666672px;stroke-linecap:butt;stroke-linejoin:miter;stroke-opacity:1"
       d="M 41.64614,12.861751 C 37.471097,18.192324 27.749678,14.962525 21.333333,12.8 17.963997,11.664419 16.368557,6.638073 12.823182,6.3692077 8.3808395,6.0323204 4.8894901,15.014765 1.0667989,12.726768 -2.5942091,10.535543 -1.9148203,2.932919 1.1130507,-0.0731488 5.5286955,-4.4569973 13.660684,-1.1348459 19.779595,-0.00569813 33.567141,2.5385737 33.548676,-3.7763339 38.44614,0.06175253 c 3.461616,2.71282877 5.911835,9.33760677 3.2,12.79999847 z"
       id="path3835-0"
       inkscape:connector-curvature="0"
       sodipodi:nodetypes="aaaaassa" />
    <path
       style="fill:#55d400;fill-opacity:1;stroke:#00431c;stroke-width:1.06666672px;stroke-linecap:butt;stroke-linejoin:miter;stroke-opacity:1"
       d="M 40.579341,18.268317 C 36.404298,23.59889 26.682879,20.36909 20.266534,18.206564 16.897198,17.070985 15.301758,12.044638 11.756383,11.775773 7.3140403,11.438885 3.8226916,20.42133 0,18.133333 -3.6610081,15.942109 -2.9816194,8.3394837 0.04625173,5.3334161 4.4618966,0.94956757 12.593885,4.271719 18.712796,5.4008665 c 13.787546,2.5442716 13.769081,-3.7706358 18.666545,0.06745 3.461616,2.7128288 5.911836,9.3376065 3.2,12.8000005 z"
       id="path3835"
       inkscape:connector-curvature="0"
       sodipodi:nodetypes="aaaaassa" />
    <path
       style="fill:#000000;fill-opacity:1;stroke:#000000;stroke-width:1.06666672px;stroke-linecap:butt;stroke-linejoin:miter;stroke-opacity:1"
       d="m 2.6666656,25.6 c 2.2158709,-2.978198 6.9785877,-3.621692 10.6666674,-3.2 5.696049,0.651281 9.250901,9.294314 14.933334,8.533333 4.983823,-0.667424 5.976647,-12.47986 10.666666,-10.666666 6.972215,2.695506 6.225141,16.990039 1.066667,22.4 -4.293862,4.503198 -14.553807,4.669093 -18.666667,0 -22.7549522,-25.83239 -14.4157437,4.543753 -18.6666674,0 -3.65173653,-3.903292 -3.39587093,-12.502511 0,-17.066667 z"
       id="path3833-8"
       inkscape:connector-curvature="0"
       sodipodi:nodetypes="aaaaassa" />
    <path
       style="fill:#214478;fill-opacity:1;stroke:#0000ff;stroke-width:1.06666672px;stroke-linecap:butt;stroke-linejoin:miter;stroke-opacity:1"
       d="m 3.7333333,14.933333 c 2.2158712,-2.978198 6.9785877,-3.621691 10.6666667,-3.2 5.696049,0.651281 9.2509,9.294314 14.933333,8.533334 C 34.317156,19.599243 35.309981,7.7868064 40,9.6 46.972214,12.295506 46.22514,26.590039 41.066667,32 36.772804,36.503198 26.51286,36.669093 22.4,32 -0.35495104,6.1676117 7.9842565,36.543754 3.7333333,32 c -3.65173639,-3.903292 -3.39587143,-12.502511 0,-17.066667 z"
       id="path3833"
       inkscape:connector-curvature="0"
       sodipodi:nodetypes="aaaaassa" />
    <path
       style="fill:#ffffff;stroke:#000000;stroke-width:1.9960258px;stroke-linecap:butt;stroke-linejoin:miter;stroke-opacity:1"
       d="M 1.0666667,22.4 C 3.2,22.4 3.2,22.4 3.2,22.4"
       id="path3772-0-2"
       inkscape:connector-curvature="0" />
    <path
       style="fill:#ffffff;stroke:#000000;stroke-width:1.9960258px;stroke-linecap:butt;stroke-linejoin:miter;stroke-opacity:1"
       d="m 1.0666667,17.066667 c 2.1333333,0 2.1333333,0 2.1333333,0"
       id="path3772-0-1"
       inkscape:connector-curvature="0" />
    <path
       style="fill:#ffffff;stroke:#000000;stroke-width:1.9960258px;stroke-linecap:butt;stroke-linejoin:miter;stroke-opacity:1"
       d="m 1.0666667,11.733333 c 2.1333333,0 2.1333333,0 2.1333333,0"
       id="path3772-0-3"
       inkscape:connector-curvature="0" />
    <path
       style="fill:#ffffff;stroke:#000000;stroke-width:1.9960258px;stroke-linecap:butt;stroke-linejoin:miter;stroke-opacity:1"
       d="M 1.0666667,6.4 C 3.2,6.4 3.2,6.4 3.2,6.4"
       id="path3772-0-4"
       inkscape:connector-curvature="0" />
    <path
       style="fill:#ffffff;stroke:#000000;stroke-width:1.9960258px;stroke-linecap:butt;stroke-linejoin:miter;stroke-opacity:1"
       d="m 1.0666667,1.0666667 c 2.1333333,0 2.1333333,0 2.1333333,0"
       id="path3772-0-9"
       inkscape:connector-curvature="0" />
    <path
       style="fill:#ffffff;stroke:#000000;stroke-width:2.13333344;stroke-linecap:butt;stroke-linejoin:miter;stroke-miterlimit:4;stroke-dasharray:none;stroke-opacity:1"
       d="M 0,-1.0666667 V 33.066667"
       id="path2996"
       inkscape:connector-curvature="0"
       sodipodi:nodetypes="cc" />
    <path
       style="fill:none;stroke:#000000;stroke-width:2.13333344;stroke-linecap:butt;stroke-linejoin:miter;stroke-miterlimit:4;stroke-dasharray:none;stroke-opacity:1"
       d="M 34.133333,33.066667 H 0"
       id="path2998"
       inkscape:connector-curvature="0"
       sodipodi:nodetypes="cc" />
    <path
       style="fill:#ffffff;stroke:#000000;stroke-width:2.11754155px;stroke-linecap:butt;stroke-linejoin:miter;stroke-opacity:1"
       d="m 5.3333333,34.133333 c 0,-4.266666 0,-4.266666 0,-4.266666"
       id="path3840"
       inkscape:connector-curvature="0" />
    <path
       style="fill:none;stroke:#000000;stroke-width:2.11754155px;stroke-linecap:butt;stroke-linejoin:miter;stroke-opacity:1"
       d="m 12.8,34.133333 c 0,-4.266666 0,-4.266666 0,-4.266666"
       id="path3840-6"
       inkscape:connector-curvature="0" />
    <path
       style="fill:none;stroke:#000000;stroke-width:2.11754155px;stroke-linecap:butt;stroke-linejoin:miter;stroke-opacity:1"
       d="m 28.8,34.133333 c 0,-4.266666 0,-4.266666 0,-4.266666"
       id="path3840-2"
       inkscape:connector-curvature="0" />
    <path
       style="fill:none;stroke:#000000;stroke-width:2.11754155px;stroke-linecap:butt;stroke-linejoin:miter;stroke-opacity:1"
       d="m 21.333333,34.133333 c 0,-4.266666 0,-4.266666 0,-4.266666"
       id="path3840-7"
       inkscape:connector-curvature="0" />
    <path
       style="fill:#ffffff;stroke:#000000;stroke-width:1.9960258px;stroke-linecap:butt;stroke-linejoin:miter;stroke-opacity:1"
       d="m 1.0666667,27.733333 c 2.1333333,0 2.1333333,0 2.1333333,0"
       id="path3772-0"
       inkscape:connector-curvature="0" />
    <rect
       style="fill:#5f5f5f;fill-opacity:0.64705882;stroke:#4fd6f3;stroke-width:2.24751306;stroke-miterlimit:4;stroke-dasharray:none;stroke-opacity:0.98823529"
       id="rect2999"
       width="33.066666"
       height="33.066666"
       x="1.0666667"
       y="1.0666667"
       rx="5.5080481"
       ry="3.9317079" />
    <path
       style="fill:#999999;stroke:#ffffff;stroke-width:3.24005604px;stroke-linecap:butt;stroke-linejoin:miter;stroke-opacity:1"
       d="m 17.066667,7.9310443 c 0,19.1999997 0,19.1999997 0,19.1999997"
       id="path3769-6"
       inkscape:connector-curvature="0" />
    <path
       style="fill:#808080;stroke:#ffffff;stroke-width:3.58909512px;stroke-linecap:butt;stroke-linejoin:miter;stroke-opacity:1"
       d="m 7.4666667,17.066667 c 19.2000003,0 19.2000003,0 19.2000003,0"
       id="path3847"
       inkscape:connector-curvature="0" />
  </g>
</svg>
