<?xml version="1.0" encoding="UTF-8" standalone="no"?>
<!-- Created with Inkscape (http://www.inkscape.org/) -->

<svg
   xmlns:dc="http://purl.org/dc/elements/1.1/"
   xmlns:cc="http://creativecommons.org/ns#"
   xmlns:rdf="http://www.w3.org/1999/02/22-rdf-syntax-ns#"
   xmlns:svg="http://www.w3.org/2000/svg"
   xmlns="http://www.w3.org/2000/svg"
   xmlns:sodipodi="http://sodipodi.sourceforge.net/DTD/sodipodi-0.dtd"
   xmlns:inkscape="http://www.inkscape.org/namespaces/inkscape"
   width="34.133335"
   height="34.133335"
   id="svg2985"
   version="1.1"
   inkscape:version="0.92.1 r15371"
   sodipodi:docname="semiautomaticclassificationplugin_undo_lcs_threshold.svg"
   inkscape:export-filename="/home/luca/Scrivania/semiautomaticclassificationplugin_undo_lcs_threshold.png"
   inkscape:export-xdpi="67"
   inkscape:export-ydpi="67">
  <defs
     id="defs2987" />
  <sodipodi:namedview
     id="base"
     pagecolor="#ffffff"
     bordercolor="#666666"
     borderopacity="1.0"
     inkscape:pageopacity="0.0"
     inkscape:pageshadow="2"
     inkscape:zoom="11.197802"
     inkscape:cx="-20.693685"
     inkscape:cy="16.104989"
     inkscape:current-layer="layer1"
     showgrid="true"
     inkscape:grid-bbox="true"
     inkscape:document-units="px"
     showguides="true"
     inkscape:snap-global="true"
     inkscape:window-width="1366"
     inkscape:window-height="708"
     inkscape:window-x="0"
     inkscape:window-y="0"
     inkscape:window-maximized="1">
    <inkscape:grid
       type="xygrid"
       id="grid2997"
       originx="0"
       originy="0"
       spacingx="1.0666667"
       spacingy="1.0666667" />
  </sodipodi:namedview>
  <metadata
     id="metadata2990">
    <rdf:RDF>
      <cc:Work
         rdf:about="">
        <dc:format>image/svg+xml</dc:format>
        <dc:type
           rdf:resource="http://purl.org/dc/dcmitype/StillImage" />
        <dc:title />
      </cc:Work>
    </rdf:RDF>
  </metadata>
  <g
     id="layer1"
     inkscape:label="Layer 1"
     inkscape:groupmode="layer">
    <g
       id="g3035"
       transform="translate(34.156534,3.1576437)">
      <rect
         ry="3.3153698"
         y="-6.2651033"
         x="-36.266911"
         height="37.333332"
         width="37.333332"
         id="rect3815"
         style="color:#000000;display:inline;overflow:visible;visibility:visible;fill:#ffffff;fill-opacity:1;fill-rule:nonzero;stroke:#db6666;stroke-width:1.06666672;stroke-linecap:butt;stroke-linejoin:miter;stroke-miterlimit:4;stroke-dasharray:none;stroke-dashoffset:0;stroke-opacity:1;marker:none;enable-background:accumulate" />
      <path
         sodipodi:nodetypes="aaaaassa"
         inkscape:connector-curvature="0"
         id="path3835-0"
         d="M 5.3792299,11.929982 C 1.2041867,17.260555 -8.517232,14.030755 -14.933577,11.868232 -18.302913,10.732651 -19.898353,5.7063051 -23.443728,5.4374401 -27.88607,5.1005526 -31.37742,14.082996 -35.200111,11.795 c -3.661008,-2.191225 -2.981619,-9.793849 0.04625,-12.7999173 4.415645,-4.3838485 12.547633,-1.061697 18.666544,0.067456 13.7875464,2.544272 13.7690813,-3.7706357 18.6665448,0.0674453 3.461616,2.7128288 5.9118357,9.3376064 3.2,12.799999 z"
         style="fill:#2aff2a;fill-opacity:1;stroke:#00001c;stroke-width:0;stroke-linecap:butt;stroke-linejoin:miter;stroke-miterlimit:4;stroke-dasharray:none;stroke-opacity:1" />
      <path
         sodipodi:nodetypes="aaaaassa"
         inkscape:connector-curvature="0"
         id="path3835"
         d="M 4.2664235,6.5348971 C 0.09138027,11.86547 -9.6300384,8.6356704 -16.046383,6.4731477 -19.415719,5.337568 -21.011159,0.31122133 -24.556534,0.04235627 -28.998877,-0.2945312 -32.490226,8.6879136 -36.312917,6.3999168 -39.973925,4.2086923 -39.294537,-3.3939317 -36.266667,-6.4 c 4.415645,-4.383849 12.547633,-1.0616971 18.666544,0.067445 13.7875481,2.5442742 13.769083,-3.770633 18.6665465,0.067452 3.461616,2.7128288 5.9118357,9.3376074 3.2,12.8000001 z"
         style="fill:#2ca02c;fill-opacity:1;stroke:#00431c;stroke-width:0;stroke-linecap:butt;stroke-linejoin:miter;stroke-miterlimit:4;stroke-dasharray:none;stroke-opacity:1" />
      <path
         sodipodi:nodetypes="aaaaassa"
         inkscape:connector-curvature="0"
         id="path3833-8"
         d="m -33.600244,15.06823 c 2.215871,-2.978198 6.978587,-3.621691 10.666667,-3.2 5.69605,0.651281 9.250901,9.294314 14.9333338,8.533334 C -3.0164203,19.73414 -2.0235957,7.9217035 2.6664235,9.7348971 9.6386379,12.430403 8.8915637,26.724937 3.7330901,32.134897 c -4.29386237,4.503198 -14.5538071,4.669093 -18.6666671,0 -22.754952,-25.8323893 -14.415744,4.543754 -18.666667,0 -3.651737,-3.903292 -3.395871,-12.502511 0,-17.066667 z"
         style="fill:#2c89a0;fill-opacity:1;stroke:#000000;stroke-width:0;stroke-linecap:butt;stroke-linejoin:miter;stroke-miterlimit:4;stroke-dasharray:none;stroke-opacity:1" />
      <path
         sodipodi:nodetypes="aaaaassa"
         inkscape:connector-curvature="0"
         id="path3833"
         d="m -35.200243,21.46823 c 2.215871,-2.978198 6.978588,-3.621691 10.666666,-3.2 5.69605,0.651281 9.250901,9.294314 14.9333338,8.533334 4.9838229,-0.667424 5.9766475,-12.479861 10.6666667,-10.666667 6.9722144,2.695506 6.2251402,16.99004 1.0666666,22.4 -4.2938624,4.503198 -14.5538071,4.669093 -18.6666671,0 -22.754951,-25.832388 -14.415744,4.543754 -18.666666,0 -3.651737,-3.903292 -3.395872,-12.502511 0,-17.066667 z"
         style="fill:#006680;fill-opacity:1;stroke:#0000ff;stroke-width:0;stroke-linecap:butt;stroke-linejoin:miter;stroke-miterlimit:4;stroke-dasharray:none;stroke-opacity:1" />
      <path
         inkscape:connector-curvature="0"
         id="path3772-0-2"
         d="m -35.200243,19.334897 c 2.133333,0 2.133333,0 2.133333,0"
         style="fill:#1c2422;stroke:#0d0d0d;stroke-width:3.88266683;stroke-linecap:butt;stroke-linejoin:miter;stroke-miterlimit:4.19999981;stroke-dasharray:none;stroke-opacity:1" />
      <path
         inkscape:connector-curvature="0"
         id="path3772-0-1"
         d="m -35.200243,14.001564 c 2.133333,0 2.133333,0 2.133333,0"
         style="fill:#1c2422;stroke:#0d0d0d;stroke-width:3.88266683;stroke-linecap:butt;stroke-linejoin:miter;stroke-miterlimit:4.19999981;stroke-dasharray:none;stroke-opacity:1" />
      <path
         inkscape:connector-curvature="0"
         id="path3772-0-3"
         d="m -35.200243,8.6682304 c 2.133333,0 2.133333,0 2.133333,0"
         style="fill:#1c2422;stroke:#0d0d0d;stroke-width:3.88266683;stroke-linecap:butt;stroke-linejoin:miter;stroke-miterlimit:4.19999981;stroke-dasharray:none;stroke-opacity:1" />
      <path
         inkscape:connector-curvature="0"
         id="path3772-0-4"
         d="m -35.200243,3.3348971 c 2.133333,0 2.133333,0 2.133333,0"
         style="fill:#1c2422;stroke:#0d0d0d;stroke-width:3.88266683;stroke-linecap:butt;stroke-linejoin:miter;stroke-miterlimit:4.19999981;stroke-dasharray:none;stroke-opacity:1" />
      <path
         inkscape:connector-curvature="0"
         id="path3772-0-9"
         d="m -35.200243,-1.9984363 c 2.133333,0 2.133333,0 2.133333,0"
         style="fill:#1c2422;stroke:#0d0d0d;stroke-width:3.88266683;stroke-linecap:butt;stroke-linejoin:miter;stroke-miterlimit:4.19999981;stroke-dasharray:none;stroke-opacity:1" />
      <path
         inkscape:connector-curvature="0"
         id="path3840"
         d="m -30.933577,31.06823 c 0,-4.266666 0,-4.266666 0,-4.266666"
         style="fill:#1c2422;stroke:#000000;stroke-width:3.88266683;stroke-linecap:butt;stroke-linejoin:miter;stroke-miterlimit:4.19999981;stroke-dasharray:none;stroke-opacity:1" />
      <path
         inkscape:connector-curvature="0"
         id="path3840-6"
         d="m -23.46691,31.06823 c 0,-4.266666 0,-4.266666 0,-4.266666"
         style="fill:#1c2422;stroke:#000000;stroke-width:3.88266683;stroke-linecap:butt;stroke-linejoin:miter;stroke-miterlimit:4.19999981;stroke-dasharray:none;stroke-opacity:1" />
      <path
         inkscape:connector-curvature="0"
         id="path3840-2"
         d="m -7.4669099,31.06823 c 0,-4.266666 0,-4.266666 0,-4.266666"
         style="fill:#1c2422;stroke:#000000;stroke-width:3.88266683;stroke-linecap:butt;stroke-linejoin:miter;stroke-miterlimit:4.19999981;stroke-dasharray:none;stroke-opacity:1" />
      <path
         inkscape:connector-curvature="0"
         id="path3840-7"
         d="m -14.933577,31.06823 c 0,-4.266666 0,-4.266666 0,-4.266666"
         style="fill:#1c2422;stroke:#000000;stroke-width:3.88266683;stroke-linecap:butt;stroke-linejoin:miter;stroke-miterlimit:4.19999981;stroke-dasharray:none;stroke-opacity:1" />
      <path
         inkscape:connector-curvature="0"
         id="path3772-0"
         d="m -35.200243,24.66823 c 2.133333,0 2.133333,0 2.133333,0"
         style="fill:#1c2422;stroke:#0d0d0d;stroke-width:3.88266683;stroke-linecap:butt;stroke-linejoin:miter;stroke-miterlimit:4.19999981;stroke-dasharray:none;stroke-opacity:1" />
      <path
         inkscape:connector-curvature="0"
         id="path3772-0-2-3"
         d="m -37.333577,19.334897 c 2.133334,0 2.133334,0 2.133334,0"
         style="fill:#1c2422;stroke:#000000;stroke-width:3.88266683;stroke-linecap:butt;stroke-linejoin:miter;stroke-miterlimit:4.19999981;stroke-dasharray:none;stroke-opacity:1" />
      <path
         inkscape:connector-curvature="0"
         id="path3772-0-1-9"
         d="m -37.333577,14.001564 c 2.133334,0 2.133334,0 2.133334,0"
         style="fill:#1c2422;stroke:#000000;stroke-width:3.88266683;stroke-linecap:butt;stroke-linejoin:miter;stroke-miterlimit:4.19999981;stroke-dasharray:none;stroke-opacity:1" />
      <path
         inkscape:connector-curvature="0"
         id="path3772-0-3-1"
         d="m -37.333577,8.6682304 c 2.133334,0 2.133334,0 2.133334,0"
         style="fill:#1c2422;stroke:#000000;stroke-width:3.88266683;stroke-linecap:butt;stroke-linejoin:miter;stroke-miterlimit:4.19999981;stroke-dasharray:none;stroke-opacity:1" />
      <path
         inkscape:connector-curvature="0"
         id="path3772-0-4-4"
         d="m -37.333577,3.3348981 c 2.133334,0 2.133334,0 2.133334,0"
         style="fill:#1c2422;stroke:#000000;stroke-width:3.88266683;stroke-linecap:butt;stroke-linejoin:miter;stroke-miterlimit:4.19999981;stroke-dasharray:none;stroke-opacity:1" />
      <path
         inkscape:connector-curvature="0"
         id="path3772-0-9-1"
         d="m -37.333577,-1.9984352 c 2.133334,0 2.133334,0 2.133334,0"
         style="fill:#1c2422;stroke:#000000;stroke-width:3.88266683;stroke-linecap:butt;stroke-linejoin:miter;stroke-miterlimit:4.19999981;stroke-dasharray:none;stroke-opacity:1" />
      <path
         inkscape:connector-curvature="0"
         id="path3772-0-15"
         d="m -37.333577,24.66823 c 2.133334,0 2.133334,0 2.133334,0"
         style="fill:#1c2422;stroke:#000000;stroke-width:3.88266683;stroke-linecap:butt;stroke-linejoin:miter;stroke-miterlimit:4.19999981;stroke-dasharray:none;stroke-opacity:1" />
    </g>
    <rect
       style="fill:#00c19a;fill-opacity:0.5254902;fill-rule:evenodd;stroke:#18d6ff;stroke-width:2.24751306;stroke-miterlimit:4;stroke-dasharray:none;stroke-opacity:1"
       id="rect2999"
       width="33.066666"
       height="33.066666"
       x="0"
       y="0"
       rx="5.5080481"
       ry="3.9317079" />
    <path
       style="color:#000000;font-style:normal;font-variant:normal;font-weight:normal;font-stretch:normal;font-size:medium;line-height:normal;font-family:Sans;-inkscape-font-specification:Sans;text-indent:0;text-align:start;text-decoration:none;text-decoration-line:none;letter-spacing:normal;word-spacing:normal;text-transform:none;writing-mode:lr-tb;direction:ltr;baseline-shift:baseline;text-anchor:start;display:inline;overflow:visible;visibility:visible;fill:#000000;fill-opacity:1;stroke:none;stroke-width:3.41333342;marker:none;enable-background:accumulate"
       d="M 30.406954,11.695108 C 26.004198,3.3100758 19.369158,4.5286701 10.666667,7.4666667 L 8.6660107,1.9410624 2.2095076,15.9027 3.6296161,16.497635 16.927452,17.068651 13.615569,11.514548 c 5.803999,-1.286105 11.609948,-2.5918088 14.384264,2.691866 2.524613,2.282428 3.992384,1.734392 2.407126,-2.5113 z"
       id="path2988-7-0"
       inkscape:connector-curvature="0"
       sodipodi:nodetypes="ccccccccc" />
    <path
       style="color:#000000;font-style:normal;font-variant:normal;font-weight:normal;font-stretch:normal;font-size:medium;line-height:normal;font-family:Sans;-inkscape-font-specification:Sans;text-indent:0;text-align:start;text-decoration:none;text-decoration-line:none;letter-spacing:normal;word-spacing:normal;text-transform:none;writing-mode:lr-tb;direction:ltr;baseline-shift:baseline;text-anchor:start;display:inline;overflow:visible;visibility:visible;fill:#0000ff;fill-opacity:1;stroke:none;stroke-width:3.41333342;marker:none;enable-background:accumulate"
       d="M 30.092036,9.3809141 C 25.689282,0.99588107 19.054241,2.2144756 10.351749,5.1524722 L 8.3510933,-0.37313269 1.8945902,13.588505 3.3147011,14.183442 16.612534,14.754458 13.300652,9.2003541 c 5.803999,-1.2861045 11.609947,-2.5918096 14.384263,2.6918639 2.524612,2.282428 3.992383,1.734392 2.407127,-2.5112996 z"
       id="path2988-7"
       inkscape:connector-curvature="0"
       sodipodi:nodetypes="ccccccccc" />
    <rect
       style="fill:#ff0000;fill-opacity:1;fill-rule:evenodd;stroke:#ffffff;stroke-width:1.12;stroke-linecap:square;stroke-linejoin:miter;stroke-miterlimit:4;stroke-dasharray:none;stroke-dashoffset:0;stroke-opacity:1"
       id="rect3010"
       width="14.933333"
       height="14.933333"
       x="18.133333"
       y="19.200001"
       ry="2.8444445" />
    <path
       style="fill:none;stroke:#ffffff;stroke-width:3.16173148;stroke-linecap:butt;stroke-linejoin:miter;stroke-miterlimit:4;stroke-dasharray:none;stroke-opacity:1"
       d="M 19.626667,26.666667 H 31.573333"
       id="path3782"
       inkscape:connector-curvature="0"
       sodipodi:nodetypes="cc" />
  </g>
</svg>
