<?xml version="1.0" encoding="UTF-8" standalone="no"?>
<!-- Created with Inkscape (http://www.inkscape.org/) -->

<svg
   xmlns:dc="http://purl.org/dc/elements/1.1/"
   xmlns:cc="http://creativecommons.org/ns#"
   xmlns:rdf="http://www.w3.org/1999/02/22-rdf-syntax-ns#"
   xmlns:svg="http://www.w3.org/2000/svg"
   xmlns="http://www.w3.org/2000/svg"
   xmlns:sodipodi="http://sodipodi.sourceforge.net/DTD/sodipodi-0.dtd"
   xmlns:inkscape="http://www.inkscape.org/namespaces/inkscape"
   width="34.133335"
   height="34.133335"
   id="svg2985"
   version="1.1"
   inkscape:version="0.92.1 r15371"
   sodipodi:docname="semiautomaticclassificationplugin_bandset_cumulative_stretch_tool.svg"
   inkscape:export-filename="/home/luca/Scrivania/semiautomaticclassificationplugin_bandset_tool.png"
   inkscape:export-xdpi="67"
   inkscape:export-ydpi="67">
  <defs
     id="defs2987" />
  <sodipodi:namedview
     id="base"
     pagecolor="#ffffff"
     bordercolor="#666666"
     borderopacity="1.0"
     inkscape:pageopacity="0.0"
     inkscape:pageshadow="2"
     inkscape:zoom="11.197802"
     inkscape:cx="-11.127823"
     inkscape:cy="17.997156"
     inkscape:current-layer="layer1"
     showgrid="true"
     inkscape:grid-bbox="true"
     inkscape:document-units="px"
     showguides="false"
     inkscape:window-width="1366"
     inkscape:window-height="708"
     inkscape:window-x="0"
     inkscape:window-y="0"
     inkscape:window-maximized="1">
    <inkscape:grid
       type="xygrid"
       id="grid3765"
       originx="0"
       originy="0"
       spacingx="1.0666667"
       spacingy="1.0666667" />
  </sodipodi:namedview>
  <metadata
     id="metadata2990">
    <rdf:RDF>
      <cc:Work
         rdf:about="">
        <dc:format>image/svg+xml</dc:format>
        <dc:type
           rdf:resource="http://purl.org/dc/dcmitype/StillImage" />
        <dc:title />
      </cc:Work>
    </rdf:RDF>
  </metadata>
  <g
     id="layer1"
     inkscape:label="Layer 1"
     inkscape:groupmode="layer">
    <rect
       style="fill:#91bdff;fill-opacity:1;fill-rule:evenodd;stroke:#ffffff;stroke-width:2.18370509;stroke-miterlimit:4;stroke-dasharray:none;stroke-opacity:1"
       id="rect2993"
       width="21.316967"
       height="17.882128"
       x="52.212822"
       y="45.451149"
       rx="2.5406871"
       ry="2.7055781"
       transform="matrix(1,0,-0.84367848,0.53684879,0,0)"
       inkscape:export-xdpi="67"
       inkscape:export-ydpi="67" />
    <rect
       transform="matrix(1,0,-0.78937293,0.61391398,0,0)"
       ry="2.8917108"
       rx="2.5406871"
       y="27.799768"
       x="35.980846"
       height="19.112341"
       width="21.316967"
       id="rect3767"
       style="fill:#8fff8f;fill-opacity:1;fill-rule:evenodd;stroke:#ffffff;stroke-width:2.04204917;stroke-miterlimit:4;stroke-dasharray:none;stroke-opacity:1" />
    <rect
       style="fill:#ffa3a3;fill-opacity:1;fill-rule:evenodd;stroke:#ffffff;stroke-width:1.94499779;stroke-miterlimit:4;stroke-dasharray:none;stroke-opacity:1"
       id="rect3769"
       width="21.316967"
       height="20.491337"
       x="23.320629"
       y="12.610057"
       rx="2.5406871"
       ry="3.1003535"
       transform="matrix(1,0,-0.73625089,0.67670868,0,0)" />
    <rect
       transform="matrix(1,0,-0.71071152,0.70348358,0,0)"
       ry="3.2117646"
       rx="2.5406871"
       y="-4.0401384e-15"
       x="13.866667"
       height="21.227692"
       width="21.316967"
       id="rect3771"
       style="fill:#e6e6e6;fill-opacity:1;fill-rule:evenodd;stroke:#ffffff;stroke-width:1.90762496;stroke-miterlimit:4;stroke-dasharray:none;stroke-opacity:1"
       inkscape:export-xdpi="67"
       inkscape:export-ydpi="67" />
    <path
       style="color:#000000;font-style:normal;font-variant:normal;font-weight:normal;font-stretch:normal;font-size:medium;line-height:normal;font-family:Sans;-inkscape-font-specification:Sans;text-indent:0;text-align:start;text-decoration:none;text-decoration-line:none;letter-spacing:normal;word-spacing:normal;text-transform:none;writing-mode:lr-tb;direction:ltr;baseline-shift:baseline;text-anchor:start;display:inline;overflow:visible;visibility:visible;fill:#00627e;fill-opacity:1;stroke:#ffffff;stroke-width:1.06666672px;stroke-opacity:1;marker:none;enable-background:accumulate"
       d="m 16,1.0666667 c -4.074204,0.0014 -8.3715555,3.9928236 -9.6,6.4 C 5.1715555,9.873843 3.084283,18.911564 1.0666667,25.6 0.05785867,28.944218 -1.808808,30.277551 -2.356606,30.77483 -2.9044041,31.272109 -3.2,30.933333 -3.2,30.933333 c 0.7068757,0.158629 0.4404813,1.015372 0.1305651,1.804087 -0.3099162,0.788713 -0.6633541,1.509399 -0.1305651,1.395913 0,0 0.2604556,1.532041 2.1333333,0 1.87287776,-1.53204 5.3581776,-3.994827 6.4,-8.533333 C 7.4169781,16.522988 9.576784,5.2829051 16.175549,5.324285 22.4,6.4 21.333333,9.6 26.666667,23.466667 c 2.417384,6.2852 6.4,9.6 10.666666,10.666666 6.4,1.066667 5.333334,0 5.333334,0 C 44.8,32 43.733333,35.2 42.666667,30.933333 41.924503,31.180721 35.058347,32.326252 32,25.6 28.941653,18.873748 27.480595,11.309653 25.6,7.4666667 23.719405,3.62368 21.759187,1.1144355 16,1.0666667 Z"
       id="path2997"
       inkscape:connector-curvature="0"
       sodipodi:nodetypes="czsscscsscscccszc" />
    <text
       xml:space="preserve"
       style="font-style:normal;font-weight:bold;font-size:12.80000019px;line-height:0%;font-family:sans-serif;-inkscape-font-specification:'Sans Bold';letter-spacing:0px;word-spacing:0px;fill:#000000;fill-opacity:1;stroke:#898989;stroke-width:1.06666672;stroke-opacity:1"
       x="4.2666669"
       y="32"
       id="text3795"><tspan
         sodipodi:role="line"
         id="tspan3797"
         x="4.2666669"
         y="32"
         style="font-size:25.60000038px;line-height:1.25;font-family:sans-serif;stroke-width:1.06666672">%</tspan></text>
  </g>
</svg>
