<?xml version="1.0" encoding="UTF-8" standalone="no"?>
<!-- Created with Inkscape (http://www.inkscape.org/) -->

<svg
   xmlns:dc="http://purl.org/dc/elements/1.1/"
   xmlns:cc="http://creativecommons.org/ns#"
   xmlns:rdf="http://www.w3.org/1999/02/22-rdf-syntax-ns#"
   xmlns:svg="http://www.w3.org/2000/svg"
   xmlns="http://www.w3.org/2000/svg"
   xmlns:sodipodi="http://sodipodi.sourceforge.net/DTD/sodipodi-0.dtd"
   xmlns:inkscape="http://www.inkscape.org/namespaces/inkscape"
   width="34.133335"
   height="34.133335"
   id="svg2985"
   version="1.1"
   inkscape:version="0.92.1 r15371"
   sodipodi:docname="semiautomaticclassificationplugin_LCS_threshold_ROI_tool.svg"
   inkscape:export-filename="/home/luca/Scrivania/semiautomaticclassificationplugin_LCS_threshold_ROI_tool.png"
   inkscape:export-xdpi="67"
   inkscape:export-ydpi="67">
  <defs
     id="defs2987" />
  <sodipodi:namedview
     id="base"
     pagecolor="#ffffff"
     bordercolor="#666666"
     borderopacity="1.0"
     inkscape:pageopacity="0.0"
     inkscape:pageshadow="2"
     inkscape:zoom="5.598901"
     inkscape:cx="-95.169057"
     inkscape:cy="25.498217"
     inkscape:current-layer="layer1"
     showgrid="true"
     inkscape:grid-bbox="true"
     inkscape:document-units="px"
     showguides="true"
     inkscape:snap-global="true"
     inkscape:window-width="1366"
     inkscape:window-height="708"
     inkscape:window-x="0"
     inkscape:window-y="0"
     inkscape:window-maximized="1"
     inkscape:guide-bbox="true">
    <inkscape:grid
       type="xygrid"
       id="grid2997"
       originx="0"
       originy="0"
       spacingx="1.0666667"
       spacingy="1.0666667" />
  </sodipodi:namedview>
  <metadata
     id="metadata2990">
    <rdf:RDF>
      <cc:Work
         rdf:about="">
        <dc:format>image/svg+xml</dc:format>
        <dc:type
           rdf:resource="http://purl.org/dc/dcmitype/StillImage" />
        <dc:title />
      </cc:Work>
    </rdf:RDF>
  </metadata>
  <g
     id="layer1"
     inkscape:label="Layer 1"
     inkscape:groupmode="layer">
    <rect
       style="color:#000000;display:inline;overflow:visible;visibility:visible;fill:#ffffff;fill-opacity:1;fill-rule:nonzero;stroke:#db6666;stroke-width:1.06666672;stroke-linecap:butt;stroke-linejoin:miter;stroke-miterlimit:4;stroke-dasharray:none;stroke-dashoffset:0;stroke-opacity:1;marker:none;enable-background:accumulate"
       id="rect3815"
       width="37.333332"
       height="37.333332"
       x="0"
       y="-3.2"
       ry="3.3153698" />
    <path
       style="fill:#2aff2a;fill-opacity:1;stroke:#00001c;stroke-width:0;stroke-linecap:butt;stroke-linejoin:miter;stroke-miterlimit:4;stroke-dasharray:none;stroke-opacity:1"
       d="M 41.64614,14.995085 C 37.471097,20.325658 27.749678,17.095858 21.333333,14.933333 17.963997,13.797753 16.368557,8.7714063 12.823182,8.502541 8.3808395,8.1656538 4.8894901,17.148098 1.0667989,14.860101 -2.5942091,12.668877 -1.9148203,5.0662524 1.1130507,2.0601845 5.5286955,-2.323664 13.660684,0.99848747 19.779595,2.1276352 33.567141,4.671907 33.548676,-1.6430005 38.44614,2.1950859 c 3.461616,2.7128288 5.911835,9.3376061 3.2,12.7999991 z"
       id="path3835-0"
       inkscape:connector-curvature="0"
       sodipodi:nodetypes="aaaaassa" />
    <path
       style="fill:#2ca02c;fill-opacity:1;stroke:#00431c;stroke-width:0;stroke-linecap:butt;stroke-linejoin:miter;stroke-miterlimit:4;stroke-dasharray:none;stroke-opacity:1"
       d="M 40.533333,9.6 C 36.35829,14.930573 26.636871,11.700773 20.220527,9.5382475 16.85119,8.4026674 15.25575,3.3763211 11.710375,3.1074558 7.2680326,2.7705685 3.7766839,11.753013 -0.0460077,9.4650165 -3.7070158,7.2737918 -3.0276271,-0.32883285 2.4401067e-4,-3.3349007 4.415889,-7.7187492 12.547877,-4.3965978 18.666788,-3.2674503 32.454335,-0.72317856 32.43587,-7.0380861 37.333333,-3.2 c 3.461616,2.71282869 5.911836,9.3376068 3.2,12.8 z"
       id="path3835"
       inkscape:connector-curvature="0"
       sodipodi:nodetypes="aaaaassa" />
    <path
       style="fill:#2c89a0;fill-opacity:1;stroke:#000000;stroke-width:0;stroke-linecap:butt;stroke-linejoin:miter;stroke-miterlimit:4;stroke-dasharray:none;stroke-opacity:1"
       d="m 2.6666656,18.133333 c 2.2158709,-2.978198 6.9785877,-3.621691 10.6666674,-3.2 5.696049,0.651281 9.250901,9.294314 14.933334,8.533334 C 33.25049,22.799243 34.243314,10.986806 38.933333,12.8 45.905548,15.495506 45.158474,29.790039 40,35.2 c -4.293862,4.503198 -14.553807,4.669093 -18.666667,0 -22.7549522,-25.8323893 -14.4157437,4.543754 -18.6666674,0 -3.65173653,-3.903292 -3.39587093,-12.502511 0,-17.066667 z"
       id="path3833-8"
       inkscape:connector-curvature="0"
       sodipodi:nodetypes="aaaaassa" />
    <path
       style="fill:#006680;fill-opacity:1;stroke:#0000ff;stroke-width:0;stroke-linecap:butt;stroke-linejoin:miter;stroke-miterlimit:4;stroke-dasharray:none;stroke-opacity:1"
       d="m 1.0666667,24.533333 c 2.2158711,-2.978198 6.9785873,-3.621691 10.6666663,-3.2 5.696049,0.651281 9.250901,9.294314 14.933334,8.533334 C 31.65049,29.199243 32.643314,17.386806 37.333333,19.2 44.305548,21.895506 43.558474,36.190039 38.4,41.6 c -4.293862,4.503198 -14.553807,4.669093 -18.666667,0 -22.7549507,-25.832388 -14.4157431,4.543754 -18.6666663,0 -3.6517365,-3.903292 -3.3958715,-12.502511 0,-17.066667 z"
       id="path3833"
       inkscape:connector-curvature="0"
       sodipodi:nodetypes="aaaaassa" />
    <path
       style="fill:#1c2422;stroke:#0d0d0d;stroke-width:3.88266683;stroke-linecap:butt;stroke-linejoin:miter;stroke-miterlimit:4.19999981;stroke-dasharray:none;stroke-opacity:1"
       d="M 1.0666667,22.4 C 3.2,22.4 3.2,22.4 3.2,22.4"
       id="path3772-0-2"
       inkscape:connector-curvature="0" />
    <path
       style="fill:#1c2422;stroke:#0d0d0d;stroke-width:3.88266683;stroke-linecap:butt;stroke-linejoin:miter;stroke-miterlimit:4.19999981;stroke-dasharray:none;stroke-opacity:1"
       d="m 1.0666667,17.066667 c 2.1333333,0 2.1333333,0 2.1333333,0"
       id="path3772-0-1"
       inkscape:connector-curvature="0" />
    <path
       style="fill:#1c2422;stroke:#0d0d0d;stroke-width:3.88266683;stroke-linecap:butt;stroke-linejoin:miter;stroke-miterlimit:4.19999981;stroke-dasharray:none;stroke-opacity:1"
       d="m 1.0666667,11.733333 c 2.1333333,0 2.1333333,0 2.1333333,0"
       id="path3772-0-3"
       inkscape:connector-curvature="0" />
    <path
       style="fill:#1c2422;stroke:#0d0d0d;stroke-width:3.88266683;stroke-linecap:butt;stroke-linejoin:miter;stroke-miterlimit:4.19999981;stroke-dasharray:none;stroke-opacity:1"
       d="M 1.0666667,6.4 C 3.2,6.4 3.2,6.4 3.2,6.4"
       id="path3772-0-4"
       inkscape:connector-curvature="0" />
    <path
       style="fill:#1c2422;stroke:#0d0d0d;stroke-width:3.88266683;stroke-linecap:butt;stroke-linejoin:miter;stroke-miterlimit:4.19999981;stroke-dasharray:none;stroke-opacity:1"
       d="m 1.0666667,1.0666667 c 2.1333333,0 2.1333333,0 2.1333333,0"
       id="path3772-0-9"
       inkscape:connector-curvature="0" />
    <path
       style="fill:#1c2422;stroke:#000000;stroke-width:3.88266683;stroke-linecap:butt;stroke-linejoin:miter;stroke-miterlimit:4.19999981;stroke-dasharray:none;stroke-opacity:1"
       d="m 5.3333333,34.133333 c 0,-4.266666 0,-4.266666 0,-4.266666"
       id="path3840"
       inkscape:connector-curvature="0" />
    <path
       style="fill:#1c2422;stroke:#000000;stroke-width:3.88266683;stroke-linecap:butt;stroke-linejoin:miter;stroke-miterlimit:4.19999981;stroke-dasharray:none;stroke-opacity:1"
       d="m 12.8,34.133333 c 0,-4.266666 0,-4.266666 0,-4.266666"
       id="path3840-6"
       inkscape:connector-curvature="0" />
    <path
       style="fill:#1c2422;stroke:#000000;stroke-width:3.88266683;stroke-linecap:butt;stroke-linejoin:miter;stroke-miterlimit:4.19999981;stroke-dasharray:none;stroke-opacity:1"
       d="m 28.8,34.133333 c 0,-4.266666 0,-4.266666 0,-4.266666"
       id="path3840-2"
       inkscape:connector-curvature="0" />
    <path
       style="fill:#1c2422;stroke:#000000;stroke-width:3.88266683;stroke-linecap:butt;stroke-linejoin:miter;stroke-miterlimit:4.19999981;stroke-dasharray:none;stroke-opacity:1"
       d="m 21.333333,34.133333 c 0,-4.266666 0,-4.266666 0,-4.266666"
       id="path3840-7"
       inkscape:connector-curvature="0" />
    <path
       style="fill:#1c2422;stroke:#0d0d0d;stroke-width:3.88266683;stroke-linecap:butt;stroke-linejoin:miter;stroke-miterlimit:4.19999981;stroke-dasharray:none;stroke-opacity:1"
       d="m 1.0666667,27.733333 c 2.1333333,0 2.1333333,0 2.1333333,0"
       id="path3772-0"
       inkscape:connector-curvature="0" />
    <path
       style="fill:#1c2422;stroke:#000000;stroke-width:3.88266683;stroke-linecap:butt;stroke-linejoin:miter;stroke-miterlimit:4.19999981;stroke-dasharray:none;stroke-opacity:1"
       d="m -1.0666667,22.4 c 2.1333334,0 2.1333334,0 2.1333334,0"
       id="path3772-0-2-3"
       inkscape:connector-curvature="0" />
    <path
       style="fill:#1c2422;stroke:#000000;stroke-width:3.88266683;stroke-linecap:butt;stroke-linejoin:miter;stroke-miterlimit:4.19999981;stroke-dasharray:none;stroke-opacity:1"
       d="m -1.0666667,17.066667 c 2.1333334,0 2.1333334,0 2.1333334,0"
       id="path3772-0-1-9"
       inkscape:connector-curvature="0" />
    <path
       style="fill:#1c2422;stroke:#000000;stroke-width:3.88266683;stroke-linecap:butt;stroke-linejoin:miter;stroke-miterlimit:4.19999981;stroke-dasharray:none;stroke-opacity:1"
       d="m -1.0666667,11.733333 c 2.1333334,0 2.1333334,0 2.1333334,0"
       id="path3772-0-3-1"
       inkscape:connector-curvature="0" />
    <path
       style="fill:#1c2422;stroke:#000000;stroke-width:3.88266683;stroke-linecap:butt;stroke-linejoin:miter;stroke-miterlimit:4.19999981;stroke-dasharray:none;stroke-opacity:1"
       d="m -1.0666667,6.4000001 c 2.1333334,0 2.1333334,0 2.1333334,0"
       id="path3772-0-4-4"
       inkscape:connector-curvature="0" />
    <path
       style="fill:#1c2422;stroke:#000000;stroke-width:3.88266683;stroke-linecap:butt;stroke-linejoin:miter;stroke-miterlimit:4.19999981;stroke-dasharray:none;stroke-opacity:1"
       d="m -1.0666667,1.0666668 c 2.1333334,0 2.1333334,0 2.1333334,0"
       id="path3772-0-9-1"
       inkscape:connector-curvature="0" />
    <path
       style="fill:#1c2422;stroke:#000000;stroke-width:3.88266683;stroke-linecap:butt;stroke-linejoin:miter;stroke-miterlimit:4.19999981;stroke-dasharray:none;stroke-opacity:1"
       d="m -1.0666667,27.733333 c 2.1333334,0 2.1333334,0 2.1333334,0"
       id="path3772-0-15"
       inkscape:connector-curvature="0" />
    <rect
       style="color:#000000;display:inline;overflow:visible;visibility:visible;fill:#00ffff;fill-opacity:1;fill-rule:nonzero;stroke:#000000;stroke-width:0;stroke-linecap:butt;stroke-linejoin:miter;stroke-miterlimit:4;stroke-dasharray:none;stroke-dashoffset:0;stroke-opacity:1;marker:none;enable-background:accumulate"
       id="rect3802-9-6-4-6"
       width="1.4545455"
       height="1.3037037"
       x="16.861881"
       y="29.531527" />
    <rect
       style="color:#000000;display:inline;overflow:visible;visibility:visible;fill:#00ffff;fill-opacity:1;fill-rule:nonzero;stroke:#000000;stroke-width:0;stroke-linecap:butt;stroke-linejoin:miter;stroke-miterlimit:4;stroke-dasharray:none;stroke-dashoffset:0;stroke-opacity:1;marker:none;enable-background:accumulate"
       id="rect3802-4-8-9-9-2-6-3"
       width="1.4545455"
       height="1.3037037"
       x="15.407336"
       y="28.227819" />
    <rect
       style="color:#000000;display:inline;overflow:visible;visibility:visible;fill:#00ffff;fill-opacity:1;fill-rule:nonzero;stroke:#000000;stroke-width:0;stroke-linecap:butt;stroke-linejoin:miter;stroke-miterlimit:4;stroke-dasharray:none;stroke-dashoffset:0;stroke-opacity:1;marker:none;enable-background:accumulate"
       id="rect3802-4-8-5-9-9-6"
       width="1.4545455"
       height="1.3037037"
       x="16.861881"
       y="28.227819" />
    <rect
       style="color:#000000;display:inline;overflow:visible;visibility:visible;opacity:1;fill:#5665ff;fill-opacity:0.59607843;fill-rule:nonzero;stroke:#ff8500;stroke-width:5.19146681;stroke-linecap:butt;stroke-linejoin:miter;stroke-miterlimit:4;stroke-dasharray:none;stroke-dashoffset:2.83280158;stroke-opacity:1;marker:none;enable-background:accumulate"
       id="rect3370"
       width="69.333336"
       height="58.666668"
       x="-26.666666"
       y="-8.5333338" />
    <g
       id="g3350"
       transform="matrix(0.5875,0,0,0.74479167,56.416999,12.859641)">
      <rect
         transform="matrix(0.75899862,0.65109223,-0.77730311,0.62912628,0,0)"
         ry="1.0533639"
         rx="2.4466171"
         y="38.402992"
         x="-25.951704"
         height="8.8590584"
         width="14.687865"
         id="rect2999-8-3"
         style="fill:#e9ab16;fill-opacity:1;fill-rule:evenodd;stroke:#18d6ff;stroke-width:0;stroke-miterlimit:4;stroke-dasharray:none;stroke-opacity:1" />
      <rect
         transform="matrix(0.92415697,0.38201295,-0.70922188,0.70498534,0,0)"
         ry="1.7855288"
         rx="1.9205289"
         y="9.6335154"
         x="-45.700428"
         height="15.016753"
         width="11.529581"
         id="rect2999-8-73"
         style="fill:#e9ab16;fill-opacity:1;fill-rule:evenodd;stroke:#18d6ff;stroke-width:0;stroke-miterlimit:4;stroke-dasharray:none;stroke-opacity:1" />
      <rect
         ry="0.50731719"
         rx="4.6196532"
         y="18.133333"
         x="-65.066666"
         height="4.2666669"
         width="27.733334"
         id="rect2999-8-7-8"
         style="fill:#e9ab16;fill-opacity:1;fill-rule:evenodd;stroke:#18d6ff;stroke-width:0;stroke-miterlimit:4;stroke-dasharray:none;stroke-opacity:1" />
      <rect
         ry="0.50731719"
         rx="4.6196532"
         y="-9.6000004"
         x="-65.066666"
         height="4.2666669"
         width="27.733334"
         id="rect2999-8-7"
         style="fill:#e9ab16;fill-opacity:1;fill-rule:evenodd;stroke:#18d6ff;stroke-width:0;stroke-miterlimit:4;stroke-dasharray:none;stroke-opacity:1" />
      <rect
         ry="3.8048785"
         rx="3.5535796"
         y="-9.6000004"
         x="-68.26667"
         height="32"
         width="21.333334"
         id="rect2999-8"
         style="fill:#e9ab16;fill-opacity:1;fill-rule:evenodd;stroke:#18d6ff;stroke-width:0;stroke-miterlimit:4;stroke-dasharray:none;stroke-opacity:1" />
      <path
         sodipodi:nodetypes="cccccccccccccccccccccccc"
         inkscape:connector-curvature="0"
         id="rect2999"
         d="m -69.366667,-10.7 v 1.1 32 1.1 h 1.1 32 1.1 V 22.4 L -35.2,20.266667 -45.866667,8.5333333 v -6.4 L -35.2,-7.4666667 -35.166667,-9.6 v -1.1 h -1.1 -32 z m 2.2,2.2 h 29.8 L -48,1.0666667 V 9.6 l 10.633333,11.7 h -29.8 z"
         style="color:#000000;font-style:normal;font-variant:normal;font-weight:normal;font-stretch:normal;font-size:medium;line-height:normal;font-family:Sans;-inkscape-font-specification:Sans;text-indent:0;text-align:start;text-decoration:none;text-decoration-line:none;letter-spacing:normal;word-spacing:normal;text-transform:none;writing-mode:lr-tb;direction:ltr;baseline-shift:baseline;text-anchor:start;display:inline;overflow:visible;visibility:visible;fill:#18d6ff;fill-opacity:1;fill-rule:evenodd;stroke:none;stroke-width:2.17501283;marker:none;enable-background:accumulate" />
      <path
         inkscape:connector-curvature="0"
         id="path3904"
         d="m -49.066667,7.4666667 c 6.4,6.4000003 6.4,6.4000003 6.4,6.4000003"
         style="fill:#800080;fill-opacity:1;stroke:#f00000;stroke-width:1.84752083px;stroke-linecap:butt;stroke-linejoin:miter;stroke-opacity:1" />
      <path
         inkscape:connector-curvature="0"
         id="path3906"
         d="m -42.666667,7.4666667 c -6.4,6.4000003 -6.4,6.4000003 -6.4,6.4000003"
         style="fill:#00631f;fill-opacity:1;stroke:#f00000;stroke-width:2.13333344px;stroke-linecap:butt;stroke-linejoin:miter;stroke-opacity:1" />
      <path
         inkscape:connector-curvature="0"
         id="path3904-2"
         d="m -49.066667,-3.2 c 6.4,6.4 6.4,6.4 6.4,6.4"
         style="fill:#800080;fill-opacity:1;stroke:#f00000;stroke-width:1.84752083px;stroke-linecap:butt;stroke-linejoin:miter;stroke-opacity:1" />
      <path
         inkscape:connector-curvature="0"
         id="path3906-1"
         d="m -42.666667,-3.2 c -6.4,6.4 -6.4,6.4 -6.4,6.4"
         style="fill:#00631f;fill-opacity:1;stroke:#f00000;stroke-width:2.13333344px;stroke-linecap:butt;stroke-linejoin:miter;stroke-opacity:1" />
      <path
         inkscape:connector-curvature="0"
         id="path3904-2-1"
         d="m -39.466667,-11.733333 c 6.4,6.3999997 6.4,6.3999997 6.4,6.3999997"
         style="fill:#800080;fill-opacity:1;stroke:#f00000;stroke-width:1.84752083px;stroke-linecap:butt;stroke-linejoin:miter;stroke-opacity:1" />
      <path
         inkscape:connector-curvature="0"
         id="path3906-1-1"
         d="m -33.066667,-11.733333 c -6.4,6.3999997 -6.4,6.3999997 -6.4,6.3999997"
         style="fill:#00631f;fill-opacity:1;stroke:#f00000;stroke-width:2.13333344px;stroke-linecap:butt;stroke-linejoin:miter;stroke-opacity:1" />
      <path
         inkscape:connector-curvature="0"
         id="path3904-2-7"
         d="m -71.466667,-12.8 c 6.4,6.4 6.4,6.4 6.4,6.4"
         style="fill:#800080;fill-opacity:1;stroke:#f00000;stroke-width:1.84752083px;stroke-linecap:butt;stroke-linejoin:miter;stroke-opacity:1" />
      <path
         inkscape:connector-curvature="0"
         id="path3906-1-9"
         d="m -65.066667,-12.8 c -6.4,6.4 -6.4,6.4 -6.4,6.4"
         style="fill:#00631f;fill-opacity:1;stroke:#f00000;stroke-width:2.13333344px;stroke-linecap:butt;stroke-linejoin:miter;stroke-opacity:1" />
      <path
         inkscape:connector-curvature="0"
         id="path3904-2-9"
         d="m -70.4,19.2 c 6.4,6.4 6.4,6.4 6.4,6.4"
         style="fill:#800080;fill-opacity:1;stroke:#f00000;stroke-width:1.84752083px;stroke-linecap:butt;stroke-linejoin:miter;stroke-opacity:1" />
      <path
         inkscape:connector-curvature="0"
         id="path3906-1-4"
         d="m -64,19.2 c -6.4,6.4 -6.4,6.4 -6.4,6.4"
         style="fill:#00631f;fill-opacity:1;stroke:#f00000;stroke-width:2.13333344px;stroke-linecap:butt;stroke-linejoin:miter;stroke-opacity:1" />
      <path
         inkscape:connector-curvature="0"
         id="path3904-2-2"
         d="m -39.466667,18.133333 c 6.4,6.4 6.4,6.4 6.4,6.4"
         style="fill:#800080;fill-opacity:1;stroke:#f00000;stroke-width:1.84752083px;stroke-linecap:butt;stroke-linejoin:miter;stroke-opacity:1" />
      <path
         inkscape:connector-curvature="0"
         id="path3906-1-6"
         d="m -33.066667,18.133333 c -6.4,6.4 -6.4,6.4 -6.4,6.4"
         style="fill:#00631f;fill-opacity:1;stroke:#f00000;stroke-width:2.13333344px;stroke-linecap:butt;stroke-linejoin:miter;stroke-opacity:1" />
    </g>
  </g>
</svg>
